# xmcd
#
# Track frame offsets:
# 150
# 7724
# 18806
# 32005
# 43123
# 51819
# 56638
# 65963
# 79780
# 89486
# 102944
# 115315
# 127763
# 142366
#
# Disc length: 2094 seconds
#
#
# Revision: 0
# Processed by: cddbd v1.4PL0 Copyright (c) Steve Scherf et al.
# Submitted via: FreeRIP 2.00 
#
DISCID=ba082c0e
DTITLE=Merle Haggard - Lonesome Fugitive (Live)
DYEAR=2001
DGENRE=Country
TTITLE0=(I'm A Lonesome) Fugitive
TTITLE1=Mama Tried
TTITLE2=Blue Yodel
TTITLE3=Silver Wings
TTITLE4=Hobo Bill
TTITLE5=(My Friends Are Gonna Be) Strangers
TTITLE6=Today I Started Loving You Again
TTITLE7=Soldier's Last Letter
TTITLE8=I Can't Be Myself
TTITLE9=Right Or Wrong
TTITLE10=Okie From Muskogee
TTITLE11=Workin' Man Blues
TTITLE12=Sing Me Back Home
TTITLE13=Fightin' Side Of Me
EXTD=Park South Records\n75766 70570 2 0
EXTT0=
EXTT1=
EXTT2=
EXTT3=
EXTT4=
EXTT5=
EXTT6=
EXTT7=
EXTT8=
EXTT9=
EXTT10=
EXTT11=
EXTT12=
EXTT13=
PLAYORDER=
